<svg width="408" height="365" viewBox="0 0 408 365" fill="none" xmlns="http://www.w3.org/2000/svg">
<g clip-path="url(#clip0_2040_1423)">
<mask id="mask0_2040_1423" style="mask-type:luminance" maskUnits="userSpaceOnUse" x="0" y="0" width="408" height="365">
<path d="M0 0H408V365H0V0Z" fill="white"/>
</mask>
<g mask="url(#mask0_2040_1423)">
<path d="M69.1739 266.614C69.1739 265.449 69.1 264.281 69.1739 263.119C69.2197 261.817 69.8313 260.582 70.8788 259.676C71.9263 258.77 73.3272 258.266 74.7839 258.269C76.1979 258.272 77.5567 258.761 78.5791 259.635C79.6015 260.509 80.2092 261.701 80.2766 262.964C80.4283 265.458 80.4283 267.957 80.2766 270.451C80.2085 271.715 79.6071 272.908 78.5938 273.791C77.5805 274.673 76.2308 275.179 74.8171 275.205C73.3597 275.2 71.9605 274.694 70.9084 273.792C69.8563 272.889 69.2317 271.66 69.1637 270.358C69.0668 269.117 69.1459 267.862 69.1459 266.614" fill="#CAD1D5"/>
<path d="M56.077 288.309C54.774 288.309 53.4658 288.377 52.1704 288.295C50.7133 288.249 49.3336 287.697 48.3235 286.756C47.3135 285.816 46.7525 284.56 46.7593 283.256C46.7639 281.991 47.3129 280.775 48.2925 279.862C49.272 278.95 50.6069 278.409 52.02 278.354C54.8077 278.22 57.6014 278.22 60.3891 278.354C61.8001 278.418 63.1314 278.959 64.1149 279.866C65.0985 280.774 65.6615 281.981 65.6905 283.245C65.6847 284.549 65.1174 285.802 64.1065 286.742C63.0956 287.683 61.7187 288.239 60.2616 288.295C58.8744 288.38 57.4719 288.309 56.077 288.309Z" fill="#CAD1D5"/>
<path d="M93.3887 288.295C91.8995 288.295 90.4001 288.398 88.9262 288.27C87.5239 288.145 86.2242 287.556 85.2811 286.619C84.338 285.682 83.8192 284.464 83.8262 283.203C83.8598 281.981 84.3953 280.813 85.3303 279.922C86.2654 279.031 87.5346 278.479 88.8956 278.372C91.7752 278.214 94.6626 278.21 97.5427 278.358C98.9552 278.424 100.285 278.973 101.257 279.893C102.228 280.813 102.766 282.032 102.76 283.297C102.76 284.559 102.225 285.775 101.264 286.699C100.303 287.624 98.9859 288.188 97.5784 288.279C96.1937 288.391 94.7887 288.3 93.3938 288.295" fill="#CAD1D5"/>
<path d="M69.1867 299.756C69.1867 298.509 69.0796 297.247 69.2122 296.013C69.3443 294.757 69.9956 293.591 71.0384 292.743C72.0813 291.894 73.4406 291.424 74.8503 291.425C76.2173 291.445 77.528 291.916 78.5299 292.748C79.5318 293.58 80.154 294.715 80.2767 295.933C80.4689 298.592 80.4646 301.259 80.2639 303.917C80.1407 305.135 79.5112 306.268 78.4998 307.09C77.4885 307.913 76.1688 308.367 74.8018 308.361C73.3898 308.37 72.0268 307.899 70.9882 307.043C69.9496 306.187 69.313 305.01 69.2071 303.751C69.0771 302.43 69.1842 301.091 69.1867 299.759" fill="#CAD1D5"/>
<path d="M317.381 64.9883C317.381 63.8226 317.307 62.6546 317.393 61.4934C317.439 60.1909 318.051 58.9556 319.098 58.0501C320.146 57.1445 321.547 56.6399 323.003 56.6435C324.417 56.6462 325.776 57.135 326.799 58.0089C327.821 58.8827 328.429 60.0748 328.496 61.3383C328.648 63.8322 328.648 66.3315 328.496 68.8254C328.428 70.0889 327.827 71.2823 326.813 72.1647C325.8 73.047 324.45 73.5527 323.037 73.5795C321.579 73.5739 320.18 73.0677 319.128 72.1656C318.076 71.2634 317.451 70.0342 317.383 68.7318C317.286 67.4908 317.365 66.2362 317.365 64.9883" fill="#CAD1D5"/>
<path d="M304.287 86.6875C302.983 86.6875 301.675 86.7559 300.38 86.6738C298.923 86.6275 297.543 86.0756 296.533 85.135C295.523 84.1943 294.962 82.9388 294.969 81.6345C294.973 80.3691 295.522 79.1538 296.502 78.241C297.481 77.3281 298.816 76.7878 300.229 76.7321C303.017 76.5986 305.811 76.5986 308.599 76.7321C310.01 76.797 311.341 77.3375 312.324 78.2449C313.308 79.1524 313.871 80.3593 313.9 81.6231C313.894 82.9278 313.327 84.1804 312.316 85.1209C311.305 86.0614 309.928 86.6175 308.471 86.6738C307.084 86.7582 305.681 86.6875 304.287 86.6875Z" fill="#CAD1D5"/>
<path d="M341.598 86.6692C340.109 86.6692 338.61 86.7719 337.136 86.6441C335.733 86.5192 334.433 85.9306 333.49 84.9936C332.547 84.0565 332.028 82.8384 332.036 81.5774C332.069 80.3555 332.605 79.1874 333.54 78.2962C334.475 77.405 335.744 76.853 337.105 76.7458C339.985 76.5883 342.872 76.5838 345.752 76.7321C347.165 76.7977 348.495 77.3474 349.466 78.2671C350.438 79.1867 350.976 80.4057 350.969 81.671C350.969 82.9335 350.435 84.1491 349.474 85.0734C348.512 85.9977 347.195 86.5621 345.788 86.6532C344.403 86.765 342.998 86.6738 341.603 86.6692" fill="#CAD1D5"/>
<path d="M317.396 98.1279C317.396 96.8801 317.289 95.6185 317.421 94.3844C317.553 93.1288 318.205 91.9626 319.248 91.1141C320.29 90.2655 321.65 89.7958 323.059 89.7968C324.426 89.8161 325.737 90.2873 326.739 91.1195C327.741 91.9518 328.363 93.0863 328.486 94.3045C328.682 96.9631 328.682 99.6304 328.486 102.289C328.363 103.507 327.733 104.639 326.722 105.462C325.71 106.285 324.391 106.738 323.024 106.733C321.612 106.742 320.249 106.27 319.21 105.415C318.172 104.559 317.535 103.382 317.429 102.122C317.299 100.802 317.406 99.4624 317.409 98.1302" fill="#CAD1D5"/>
<path d="M202.603 277.411C264.882 277.411 315.369 232.245 315.369 176.53C315.369 120.815 264.882 75.6486 202.603 75.6486C140.324 75.6486 89.8364 120.815 89.8364 176.53C89.8364 232.245 140.324 277.411 202.603 277.411Z" stroke="#CAD1D5" stroke-width="2.5" stroke-linecap="round" stroke-linejoin="round"/>
<path d="M358.53 245.919C358.53 254.469 355.696 262.828 350.386 269.937C345.076 277.047 337.528 282.588 328.698 285.86C319.868 289.132 310.151 289.988 300.777 288.32C291.403 286.652 282.792 282.534 276.034 276.488C269.276 270.442 264.673 262.739 262.808 254.353C260.944 245.967 261.901 237.274 265.558 229.375C269.216 221.475 275.41 214.723 283.357 209.973C291.304 205.222 300.647 202.687 310.205 202.687C323.022 202.687 335.313 207.242 344.376 215.349C353.439 223.457 358.53 234.453 358.53 245.919Z" fill="#F1F3F4"/>
<path d="M310.213 291.637C301.909 291.634 293.732 289.82 286.387 286.355C279.043 282.889 272.753 277.875 268.061 271.747C263.368 265.618 260.416 258.559 259.457 251.181C258.499 243.802 259.564 236.326 262.561 229.398C262.692 229.095 262.89 228.817 263.141 228.582C263.392 228.347 263.693 228.158 264.026 228.027C264.358 227.896 264.717 227.825 265.081 227.817C265.444 227.81 265.806 227.867 266.145 227.985C266.484 228.102 266.794 228.279 267.057 228.504C267.319 228.728 267.53 228.997 267.677 229.295C267.824 229.593 267.903 229.913 267.912 230.239C267.92 230.564 267.856 230.888 267.725 231.191C263.547 240.843 263.63 251.555 267.956 261.155C272.282 270.754 280.528 278.522 291.021 282.883C301.513 287.243 313.467 287.87 324.458 284.636C335.448 281.401 344.652 274.548 350.202 265.467C350.363 265.161 350.593 264.888 350.877 264.665C351.16 264.441 351.492 264.272 351.852 264.168C352.211 264.064 352.591 264.026 352.967 264.058C353.343 264.09 353.708 264.191 354.039 264.353C354.371 264.516 354.661 264.738 354.893 265.005C355.125 265.272 355.293 265.579 355.387 265.906C355.482 266.234 355.5 266.575 355.442 266.909C355.383 267.243 355.249 267.563 355.047 267.848C350.644 275.048 344.158 281.055 336.267 285.24C328.377 289.426 319.373 291.635 310.2 291.637" fill="#CAD1D5"/>
<path d="M356.403 261.157C355.97 261.157 355.543 261.065 355.156 260.89C354.769 260.715 354.433 260.461 354.176 260.149C353.918 259.837 353.746 259.475 353.673 259.093C353.599 258.711 353.627 258.319 353.754 257.948C354.436 255.969 354.947 253.946 355.284 251.898C355.391 251.247 355.782 250.661 356.372 250.269C356.962 249.876 357.702 249.709 358.429 249.805C359.157 249.9 359.812 250.251 360.251 250.778C360.689 251.306 360.876 251.968 360.769 252.619C360.389 254.917 359.814 257.187 359.05 259.408C358.876 259.914 358.526 260.357 358.05 260.672C357.574 260.987 356.995 261.157 356.403 261.157Z" fill="#CAD1D5"/>
<path d="M358.469 246.094C357.759 246.094 357.077 245.851 356.562 245.414C356.048 244.977 355.74 244.381 355.702 243.747C355.199 235.375 351.822 227.345 346.032 220.752C340.241 214.159 332.319 209.324 323.345 206.906C314.371 204.489 304.781 204.605 295.884 207.241C286.987 209.877 279.215 214.903 273.628 221.635C273.41 221.896 273.137 222.116 272.824 222.282C272.512 222.449 272.165 222.559 271.805 222.606C271.445 222.652 271.078 222.635 270.725 222.555C270.372 222.475 270.041 222.334 269.749 222.139C269.457 221.944 269.211 221.7 269.025 221.42C268.839 221.141 268.716 220.831 268.664 220.509C268.612 220.186 268.631 219.858 268.72 219.543C268.81 219.227 268.968 218.93 269.186 218.669C275.453 211.118 284.171 205.479 294.151 202.523C304.131 199.566 314.888 199.436 324.954 202.149C335.021 204.862 343.907 210.286 350.4 217.683C356.894 225.08 360.68 234.088 361.241 243.48C361.279 244.136 361.024 244.779 360.532 245.267C360.041 245.755 359.353 246.049 358.619 246.083C358.571 246.085 358.522 246.085 358.474 246.083" fill="#CAD1D5"/>
<path d="M334.907 228.549C334.231 228.043 333.451 227.661 332.611 227.424C331.77 227.187 330.885 227.101 330.008 227.17C329.13 227.24 328.276 227.463 327.495 227.828C326.713 228.192 326.02 228.691 325.454 229.295L306.283 249.77L294.553 239.048C293.308 237.911 291.608 237.263 289.829 237.246C288.049 237.23 286.336 237.847 285.064 238.961C283.793 240.075 283.069 241.595 283.051 243.187C283.033 244.779 283.722 246.312 284.968 247.449L301.879 262.894C302.504 263.464 303.25 263.917 304.073 264.227C304.896 264.536 305.78 264.696 306.673 264.696H306.928C307.864 264.663 308.783 264.456 309.624 264.087C310.465 263.717 311.21 263.194 311.811 262.551L335.738 237.001C336.304 236.397 336.732 235.699 336.996 234.947C337.261 234.195 337.357 233.404 337.279 232.619C337.202 231.833 336.952 231.069 336.545 230.37C336.137 229.671 335.58 229.051 334.904 228.545" fill="#5AB4C5"/>
<path d="M202.641 225.641C194.958 225.49 187.623 222.742 182.113 217.95C176.603 213.158 173.326 206.676 172.941 199.81C172.811 196.318 174.552 194.189 177.714 193.97C180.876 193.751 183.052 195.838 183.36 199.425C183.583 203.886 185.727 208.098 189.343 211.177C192.96 214.255 197.768 215.962 202.761 215.939C207.753 215.917 212.542 214.166 216.123 211.055C219.704 207.943 221.801 203.712 221.972 199.249C222.123 197.342 222.513 195.453 224.558 194.771C226.21 194.242 228.01 194.208 229.686 194.675C231.963 195.403 232.517 197.424 232.458 199.516C232.237 204.837 230.242 209.976 226.729 214.274C223.215 218.572 218.345 221.831 212.744 223.631C209.423 224.477 206.049 225.148 202.641 225.641Z" fill="#5AB4C5"/>
<path d="M168.705 148.509C172.178 148.53 175.513 149.728 178.038 151.861C180.562 153.995 182.088 156.906 182.307 160.007C182.472 161.259 182.082 162.518 181.22 163.515C180.359 164.512 179.095 165.168 177.699 165.34C177.007 165.42 176.304 165.372 175.633 165.198C174.963 165.025 174.339 164.73 173.801 164.332C173.263 163.935 172.822 163.442 172.505 162.886C172.188 162.329 172.002 161.721 171.959 161.097C171.653 159.291 170.901 157.904 168.621 157.879C166.342 157.853 165.561 159.247 165.237 161.054C165.195 161.696 165.002 162.322 164.672 162.894C164.341 163.465 163.881 163.967 163.32 164.37C162.759 164.772 162.111 165.064 161.416 165.228C160.721 165.392 159.995 165.424 159.286 165.322C157.899 165.095 156.667 164.393 155.85 163.365C155.033 162.338 154.696 161.066 154.91 159.82C155.177 156.721 156.75 153.828 159.312 151.728C161.873 149.628 165.231 148.478 168.705 148.509Z" fill="#5AB4C5"/>
<path d="M236.586 148.509C240.19 148.48 243.66 149.729 246.235 151.985C248.81 154.24 250.28 157.317 250.323 160.541C250.387 161.719 249.943 162.875 249.082 163.769C248.221 164.664 247.01 165.228 245.698 165.347C244.385 165.468 243.069 165.14 242.016 164.429C240.963 163.717 240.25 162.675 240.021 161.513C239.924 161.136 239.937 160.737 239.853 160.356C239.509 158.773 238.377 157.618 236.648 157.967C235.475 158.207 234.513 159.389 233.544 160.23C233.289 160.459 233.394 160.976 233.289 161.357C233.112 162.57 232.407 163.67 231.326 164.419C230.245 165.167 228.878 165.503 227.521 165.352C226.165 165.201 224.931 164.577 224.087 163.615C223.244 162.653 222.86 161.431 223.02 160.217C223.144 157.073 224.628 154.095 227.159 151.91C229.69 149.726 233.07 148.507 236.586 148.509Z" fill="#5AB4C5"/>
</g>
</g>
<defs>
<clipPath id="clip0_2040_1423">
<rect width="408" height="365" fill="white"/>
</clipPath>
</defs>
</svg>
